<svg version="1.1" xmlns="http://www.w3.org/2000/svg" viewBox="0 0 171.4772186279297 159.43182373046875" width="171.4772186279297" height="159.43182373046875">
  <!-- svg-source:excalidraw -->
  
  <defs>
    <style>
      @font-face {
        font-family: "Virgil";
        src: url("https://excalidraw.com/Virgil.woff2");
      }
      @font-face {
        font-family: "Cascadia";
        src: url("https://excalidraw.com/Cascadia.woff2");
      }
    </style>
  </defs>
  <g stroke-linecap="round" transform="translate(10 10) rotate(0 75.2840805053711 13.352279663085938)"><path d="M6.68 0 L146.81 0.42 L148.9 1.67 L150.15 3.76 L150.15 22.95 L148.9 25.04 L146.81 26.29 L143.89 26.7 L3.76 26.29 L1.67 25.04 L0.42 22.95 L0 6.68 L0.42 3.76 L1.67 1.67 L3.76 0.42 L6.68 0" stroke="none" stroke-width="0" fill="#1864ab"></path><path d="M6.68 0 M6.68 0 C58.22 0, 109.76 0, 143.89 0 M6.68 0 C53.35 0, 100.03 0, 143.89 0 M143.89 0 C148.34 0, 150.57 2.23, 150.57 6.68 M143.89 0 C148.34 0, 150.57 2.23, 150.57 6.68 M150.57 6.68 C150.57 9.78, 150.57 12.89, 150.57 20.03 M150.57 6.68 C150.57 11.7, 150.57 16.73, 150.57 20.03 M150.57 20.03 C150.57 24.48, 148.34 26.7, 143.89 26.7 M150.57 20.03 C150.57 24.48, 148.34 26.7, 143.89 26.7 M143.89 26.7 C99.7 26.7, 55.51 26.7, 6.68 26.7 M143.89 26.7 C94.65 26.7, 45.4 26.7, 6.68 26.7 M6.68 26.7 C2.23 26.7, 0 24.48, 0 20.03 M6.68 26.7 C2.23 26.7, 0 24.48, 0 20.03 M0 20.03 C0 16.09, 0 12.14, 0 6.68 M0 20.03 C0 16.28, 0 12.53, 0 6.68 M0 6.68 C0 2.23, 2.23 0, 6.68 0 M0 6.68 C0 2.23, 2.23 0, 6.68 0" stroke="#1864ab" stroke-width="4" fill="none"></path></g><g stroke-linecap="round" transform="translate(10 48.18182373046875) rotate(0 75.2840805053711 13.352279663085938)"><path d="M6.68 0 L146.81 0.42 L148.9 1.67 L150.15 3.76 L150.15 22.95 L148.9 25.04 L146.81 26.29 L143.89 26.7 L3.76 26.29 L1.67 25.04 L0.42 22.95 L0 6.68 L0.42 3.76 L1.67 1.67 L3.76 0.42 L6.68 0" stroke="none" stroke-width="0" fill="#1864ab"></path><path d="M6.68 0 M6.68 0 C49.92 0, 93.17 0, 143.89 0 M6.68 0 C59.46 0, 112.25 0, 143.89 0 M143.89 0 C148.34 0, 150.57 2.23, 150.57 6.68 M143.89 0 C148.34 0, 150.57 2.23, 150.57 6.68 M150.57 6.68 C150.57 10.01, 150.57 13.33, 150.57 20.03 M150.57 6.68 C150.57 11.35, 150.57 16.03, 150.57 20.03 M150.57 20.03 C150.57 24.48, 148.34 26.7, 143.89 26.7 M150.57 20.03 C150.57 24.48, 148.34 26.7, 143.89 26.7 M143.89 26.7 C92.08 26.7, 40.26 26.7, 6.68 26.7 M143.89 26.7 C101.38 26.7, 58.87 26.7, 6.68 26.7 M6.68 26.7 C2.23 26.7, 0 24.48, 0 20.03 M6.68 26.7 C2.23 26.7, 0 24.48, 0 20.03 M0 20.03 C0 14.94, 0 9.86, 0 6.68 M0 20.03 C0 17.02, 0 14.01, 0 6.68 M0 6.68 C0 2.23, 2.23 0, 6.68 0 M0 6.68 C0 2.23, 2.23 0, 6.68 0" stroke="#1864ab" stroke-width="4" fill="none"></path></g><g stroke-linecap="round" transform="translate(10 85.45455932617188) rotate(0 75.2840805053711 13.352279663085938)"><path d="M6.68 0 L146.81 0.42 L148.9 1.67 L150.15 3.76 L150.15 22.95 L148.9 25.04 L146.81 26.29 L143.89 26.7 L3.76 26.29 L1.67 25.04 L0.42 22.95 L0 6.68 L0.42 3.76 L1.67 1.67 L3.76 0.42 L6.68 0" stroke="none" stroke-width="0" fill="#1864ab"></path><path d="M6.68 0 M6.68 0 C35.04 0, 63.41 0, 143.89 0 M6.68 0 C38.98 0, 71.29 0, 143.89 0 M143.89 0 C148.34 0, 150.57 2.23, 150.57 6.68 M143.89 0 C148.34 0, 150.57 2.23, 150.57 6.68 M150.57 6.68 C150.57 10.17, 150.57 13.66, 150.57 20.03 M150.57 6.68 C150.57 11.33, 150.57 15.99, 150.57 20.03 M150.57 20.03 C150.57 24.48, 148.34 26.7, 143.89 26.7 M150.57 20.03 C150.57 24.48, 148.34 26.7, 143.89 26.7 M143.89 26.7 C93.82 26.7, 43.74 26.7, 6.68 26.7 M143.89 26.7 C104.15 26.7, 64.41 26.7, 6.68 26.7 M6.68 26.7 C2.23 26.7, 0 24.48, 0 20.03 M6.68 26.7 C2.23 26.7, 0 24.48, 0 20.03 M0 20.03 C0 15.82, 0 11.61, 0 6.68 M0 20.03 C0 16.98, 0 13.94, 0 6.68 M0 6.68 C0 2.23, 2.23 0, 6.68 0 M0 6.68 C0 2.23, 2.23 0, 6.68 0" stroke="#1864ab" stroke-width="4" fill="none"></path></g><g stroke-linecap="round" transform="translate(10.9090576171875 122.72726440429688) rotate(0 75.2840805053711 13.352279663085938)"><path d="M6.68 0 L146.81 0.42 L148.9 1.67 L150.15 3.76 L150.15 22.95 L148.9 25.04 L146.81 26.29 L143.89 26.7 L3.76 26.29 L1.67 25.04 L0.42 22.95 L0 6.68 L0.42 3.76 L1.67 1.67 L3.76 0.42 L6.68 0" stroke="none" stroke-width="0" fill="#1864ab"></path><path d="M6.68 0 M6.68 0 C52.51 0, 98.34 0, 143.89 0 M6.68 0 C44.9 0, 83.12 0, 143.89 0 M143.89 0 C148.34 0, 150.57 2.23, 150.57 6.68 M143.89 0 C148.34 0, 150.57 2.23, 150.57 6.68 M150.57 6.68 C150.57 9.83, 150.57 12.98, 150.57 20.03 M150.57 6.68 C150.57 11.26, 150.57 15.84, 150.57 20.03 M150.57 20.03 C150.57 24.48, 148.34 26.7, 143.89 26.7 M150.57 20.03 C150.57 24.48, 148.34 26.7, 143.89 26.7 M143.89 26.7 C102.97 26.7, 62.05 26.7, 6.68 26.7 M143.89 26.7 C112.91 26.7, 81.93 26.7, 6.68 26.7 M6.68 26.7 C2.23 26.7, 0 24.48, 0 20.03 M6.68 26.7 C2.23 26.7, 0 24.48, 0 20.03 M0 20.03 C0 14.96, 0 9.9, 0 6.68 M0 20.03 C0 14.86, 0 9.7, 0 6.68 M0 6.68 C0 2.23, 2.23 0, 6.68 0 M0 6.68 C0 2.23, 2.23 0, 6.68 0" stroke="#1864ab" stroke-width="4" fill="none"></path></g></svg>