<svg version="1.1" xmlns="http://www.w3.org/2000/svg" viewBox="0 0 170.5681610107422 46.704559326171875" width="170.5681610107422" height="46.704559326171875">
  <!-- svg-source:excalidraw -->
  
  <defs>
    <style>
      @font-face {
        font-family: "Virgil";
        src: url("https://excalidraw.com/Virgil.woff2");
      }
      @font-face {
        font-family: "Cascadia";
        src: url("https://excalidraw.com/Cascadia.woff2");
      }
    </style>
  </defs>
  <g stroke-linecap="round" transform="translate(10 10) rotate(0 75.2840805053711 13.352279663085938)"><path d="M6.68 0 L146.81 0.42 L148.9 1.67 L150.15 3.76 L150.15 22.95 L148.9 25.04 L146.81 26.29 L143.89 26.7 L3.76 26.29 L1.67 25.04 L0.42 22.95 L0 6.68 L0.42 3.76 L1.67 1.67 L3.76 0.42 L6.68 0" stroke="none" stroke-width="0" fill="#1864ab"></path><path d="M6.68 0 M6.68 0 C58.22 0, 109.76 0, 143.89 0 M6.68 0 C53.35 0, 100.03 0, 143.89 0 M143.89 0 C148.34 0, 150.57 2.23, 150.57 6.68 M143.89 0 C148.34 0, 150.57 2.23, 150.57 6.68 M150.57 6.68 C150.57 9.78, 150.57 12.89, 150.57 20.03 M150.57 6.68 C150.57 11.7, 150.57 16.73, 150.57 20.03 M150.57 20.03 C150.57 24.48, 148.34 26.7, 143.89 26.7 M150.57 20.03 C150.57 24.48, 148.34 26.7, 143.89 26.7 M143.89 26.7 C99.7 26.7, 55.51 26.7, 6.68 26.7 M143.89 26.7 C94.65 26.7, 45.4 26.7, 6.68 26.7 M6.68 26.7 C2.23 26.7, 0 24.48, 0 20.03 M6.68 26.7 C2.23 26.7, 0 24.48, 0 20.03 M0 20.03 C0 16.09, 0 12.14, 0 6.68 M0 20.03 C0 16.28, 0 12.53, 0 6.68 M0 6.68 C0 2.23, 2.23 0, 6.68 0 M0 6.68 C0 2.23, 2.23 0, 6.68 0" stroke="#1864ab" stroke-width="4" fill="none"></path></g></svg>